<svg width="20" height="25" viewBox="0 0 20 25" fill="none" xmlns="http://www.w3.org/2000/svg"><path d="M9.586 14.997c-1.338 0-2.482-.474-3.43-1.422-.947-.948-1.421-2.091-1.421-3.43 0-1.338.474-2.48 1.422-3.426.947-.945 2.09-1.418 3.43-1.418 1.338 0 2.48.473 3.429 1.418.947.946 1.421 2.088 1.421 3.426 0 1.339-.473 2.482-1.421 3.43-.948.948-2.091 1.422-3.43 1.422Zm-6.842 9.702a2.53 2.53 0 0 1-1.858-.768 2.53 2.53 0 0 1-.768-1.858v-.854c0-.695.18-1.336.54-1.92a3.575 3.575 0 0 1 1.438-1.339 17.48 17.48 0 0 1 3.684-1.355 16.28 16.28 0 0 1 7.626-.003c1.25.3 2.473.75 3.67 1.351.6.307 1.079.752 1.439 1.335.36.583.54 1.226.54 1.931v.854a2.53 2.53 0 0 1-.769 1.858 2.53 2.53 0 0 1-1.858.768H2.744Z" fill="#CBCCCE"/><path d="M13.21.85C9.68.875 7.367 1.948 6.13 2.961c-1.373 1.124-1.32 3.51-1.32 3.51 2.29-.868 9.862-.4 9.862-.4.078-.773-.121-1.628-.259-2.106-.66-.45-1.724-.806-1.724-.806.684 0 1.254.233 1.64.45.736.28 1.583 1.256 1.583 1.256l.63-.265C15.596 1.8 14.787.84 13.21.85Z" fill="#DE000B"/><path fill-rule="evenodd" clip-rule="evenodd" d="M14.852 6.259c.057.133.104.243.182.31l-.189-.012s.16 1.883-.857 1.883c-.12 0-.266-.116-.48-.285-.567-.448-1.604-1.268-3.84-1.268-2.613 0-3.697.898-4.213 1.325-.162.133-.267.22-.347.22-.49 0-1.156-1.583-.295-2.769V6.1s.04-.366.54-.85c.317-.308.605-.403.848-.484.253-.084.458-.152.597-.428 0 0 .003.148-.093.33-.05.093-.146.176-.146.176s.787-.693 2.294-.616c.6.03.95-.005 1.178-.127 0 0-.073.08-.132.122-.2.14-.256.155-.256.155s.906-.127 2.002.005c.257.032.448.076.606.113.225.052.38.087.556.048l-.357.242s.793.125 1.476.468c.63.317.801.717.926 1.006Zm.815-1.246c-.394.598-.127 1.023-.127 1.023l-.002.003c-.225-.14-.344.057-.344.057s.113-.1.414.375c.3.478.99.446.99.446l-.248.05c.877.3 1.257-.12 1.257-.12-.07.182.101.285.101.285s-.073-.17.4-.63c.47-.46.134-.996.134-.996.186.07.25-.083.25-.083s-.12.053-.348-.355c-.228-.408-.7-.5-.7-.5l.25-.028c-.365-.313-.877-.09-.877-.09.115-.24-.073-.303-.073-.303s.079.143-.45.353c-.526.21-.627.603-.627.603v-.09Z" fill="#E8E8E8"/></svg>